<svg xmlns="http://www.w3.org/2000/svg" width="160" height="160" viewBox="0 0 160 160">
  <rect width="160" height="160" fill="none"/>
  <!-- Subtle vector food icons for broad browser support -->
  <g fill="none" stroke="none" opacity="0.9">
    <!-- Row 1 -->
    <!-- Apple -->
    <g transform="translate(12,10)">
      <circle cx="10" cy="10" r="9" fill="#ef4444"/>
      <rect x="9.5" y="-1" width="1.2" height="6" rx="0.6" fill="#92400e"/>
      <path d="M11 3 C14 2, 16 5, 13 7 C12 7.5, 10.5 6, 11 3 Z" fill="#16a34a"/>
      <circle cx="6" cy="12" r="1.2" fill="#ffffff" opacity=".25"/>
    </g>
    <!-- Bread -->
    <g transform="translate(56,8)">
      <rect x="0" y="0" width="26" height="15" rx="7" fill="#f59e0b"/>
      <rect x="2" y="3" width="22" height="9" rx="5" fill="#fcd34d"/>
      <rect x="5" y="6" width="3.5" height="2" rx="1" fill="#eab308"/>
      <rect x="11" y="6" width="3.5" height="2" rx="1" fill="#eab308"/>
      <rect x="17" y="6" width="3.5" height="2" rx="1" fill="#eab308"/>
    </g>
    <!-- Tomato -->
    <g transform="translate(104,10)">
      <circle cx="12" cy="12" r="10" fill="#dc2626"/>
      <path d="M12 4 C9 6, 9 9, 12 9 C15 9, 15 6, 12 4 Z" fill="#16a34a"/>
      <path d="M12 2 l2 4 l4 2 l-4 2 l-2 4 l-2 -4 l-4 -2 l4 -2 z" fill="#15803d" opacity=".9"/>
      <circle cx="7" cy="13" r="1.4" fill="#ffffff" opacity=".25"/>
    </g>

    <!-- Banana -->
    <g transform="translate(132,8)">
      <path d="M2 10 C10 2, 22 2, 28 10 C22 8, 10 18, 4 14" fill="#f59e0b"/>
      <path d="M2 10 C10 2, 22 2, 28 10" stroke="#facc15" stroke-width="2" fill="none"/>
      <rect x="0" y="9" width="3" height="3" rx="1" fill="#92400e"/>
    </g>

    <!-- Row 2 -->
    <!-- Cheese -->
    <g transform="translate(14,54)">
      <polygon points="0,18 26,0 26,18" fill="#fde047"/>
      <circle cx="9" cy="11" r="2" fill="#facc15"/>
      <circle cx="15" cy="6" r="1.6" fill="#facc15"/>
    </g>
    <!-- Sushi -->
    <g transform="translate(62,52)">
      <rect x="0" y="5" width="24" height="13" rx="3" fill="#111827"/>
      <rect x="2" y="7" width="20" height="9" rx="3" fill="#e5e7eb"/>
      <rect x="9" y="7" width="6" height="9" rx="1" fill="#ef4444"/>
    </g>
    <!-- Fish -->
    <g transform="translate(108,54)">
      <ellipse cx="12" cy="10" rx="10" ry="6" fill="#60a5fa"/>
      <polygon points="22,10 28,6 28,14" fill="#3b82f6"/>
      <circle cx="8" cy="10" r="1.2" fill="#0f172a"/>
    </g>

    <!-- Avocado -->
    <g transform="translate(132,46)">
      <ellipse cx="10" cy="14" rx="9" ry="12" fill="#16a34a"/>
      <ellipse cx="10" cy="14" rx="6" ry="8" fill="#a7f3d0"/>
      <circle cx="10" cy="14" r="3" fill="#92400e"/>
    </g>

    <!-- Row 3 -->
    <!-- Taco -->
    <g transform="translate(10,98)">
      <path d="M0,12 a12,12 0 0 1 24,0 v4 h-24z" fill="#f59e0b"/>
      <circle cx="6" cy="12" r="2" fill="#65a30d"/>
      <circle cx="12" cy="10" r="2" fill="#65a30d"/>
      <circle cx="16" cy="12" r="2" fill="#ef4444"/>
    </g>
    <!-- Spaghetti -->
    <g transform="translate(56,94)">
      <rect x="2" y="10" width="28" height="10" rx="5" fill="#9ca3af"/>
      <path d="M4 12 C10 8, 16 8, 22 12" stroke="#f59e0b" stroke-width="2" fill="none"/>
      <path d="M8 14 C14 10, 20 10, 26 14" stroke="#fde68a" stroke-width="2" fill="none"/>
      <circle cx="28" cy="12" r="2" fill="#ef4444"/>
    </g>
    <!-- Pizza -->
    <g transform="translate(106,94)">
      <polygon points="0,20 20,0 20,20" fill="#fde047"/>
      <path d="M0 20 Q10 10 20 0" stroke="#b45309" stroke-width="4" fill="none"/>
      <circle cx="6" cy="14" r="2" fill="#ef4444"/>
      <circle cx="12" cy="10" r="2" fill="#ef4444"/>
    </g>

    <!-- Hotdog -->
    <g transform="translate(134,92)">
      <rect x="0" y="6" width="24" height="8" rx="4" fill="#f59e0b"/>
      <rect x="2" y="8" width="20" height="4" rx="2" fill="#ef4444"/>
      <path d="M3 10 C8 7, 16 13, 21 10" stroke="#fde047" stroke-width="1.5" fill="none"/>
    </g>

    <!-- Row 4 -->
    <!-- Burger -->
    <g transform="translate(12,136)">
      <rect x="0" y="0" width="28" height="8" rx="4" fill="#f59e0b"/>
      <rect x="0" y="8" width="28" height="6" rx="2" fill="#16a34a"/>
      <rect x="0" y="12" width="28" height="4" rx="2" fill="#92400e"/>
      <rect x="0" y="16" width="28" height="6" rx="3" fill="#fbbf24"/>
    </g>
    <!-- Ice Cream -->
    <g transform="translate(60,134)">
      <polygon points="12,24 6,10 18,10" fill="#d97706"/>
      <circle cx="12" cy="8" r="6" fill="#f472b6"/>
      <circle cx="14" cy="6" r="1.5" fill="#ffffff" opacity=".6"/>
    </g>
    <!-- Coffee -->
    <g transform="translate(108,134)">
      <rect x="2" y="8" width="20" height="12" rx="3" fill="#e5e7eb"/>
      <rect x="4" y="10" width="16" height="8" rx="2" fill="#6b7280"/>
      <rect x="6" y="10" width="12" height="3" rx="1.5" fill="#8b5cf6" opacity=".15"/>
      <path d="M22 10 a4 4 0 0 1 0 8" stroke="#e5e7eb" stroke-width="3" fill="none"/>
    </g>

    <!-- Carrot -->
    <g transform="translate(34,120)">
      <polygon points="0,0 10,0 5,18" fill="#f97316"/>
      <path d="M3 -2 l4 -4" stroke="#16a34a" stroke-width="2"/>
      <path d="M7 -2 l4 -3" stroke="#16a34a" stroke-width="2"/>
    </g>

    <!-- Croissant -->
    <g transform="translate(84,120)">
      <path d="M0 10 C2 2, 18 2, 20 10 C16 8, 4 8, 0 10 Z" fill="#f59e0b"/>
      <path d="M2 10 C6 6, 14 6, 18 10" stroke="#d97706" stroke-width="2"/>
    </g>

    <!-- Donut -->
    <g transform="translate(22,18)">
      <circle cx="10" cy="10" r="8" fill="#f9a8d4"/>
      <circle cx="10" cy="10" r="3" fill="#ffffff"/>
      <circle cx="7" cy="7" r="0.7" fill="#10b981"/>
      <circle cx="13" cy="8" r="0.7" fill="#ef4444"/>
      <circle cx="8" cy="13" r="0.7" fill="#f59e0b"/>
    </g>

    <!-- Dumpling -->
    <g transform="translate(44,40)">
      <path d="M0 12 a12 12 0 0 1 24 0 v4 h-24z" fill="#e5e7eb"/>
      <path d="M0 12 C6 6, 18 6, 24 12" stroke="#cbd5e1" stroke-width="2"/>
    </g>

    <!-- Ramen -->
    <g transform="translate(6,62)">
      <rect x="0" y="8" width="24" height="10" rx="2" fill="#9ca3af"/>
      <path d="M2 10 C8 8, 16 8, 22 10" stroke="#f59e0b" stroke-width="1.5"/>
      <path d="M4 12 C10 10, 14 10, 20 12" stroke="#fde68a" stroke-width="1.5"/>
      <path d="M18 2 l8 8" stroke="#6b7280" stroke-width="2"/>
      <path d="M14 2 l8 8" stroke="#6b7280" stroke-width="2"/>
    </g>

    <!-- Shrimp -->
    <g transform="translate(120,76)">
      <path d="M0 10 C4 2, 16 2, 20 10 C16 6, 8 14, 4 12 Z" fill="#fb7185"/>
      <circle cx="6" cy="10" r="1" fill="#0f172a"/>
    </g>

    <!-- Watermelon -->
    <g transform="translate(84,14)">
      <polygon points="0,20 20,0 20,20" fill="#ef4444"/>
      <path d="M0 20 L20 0" stroke="#22c55e" stroke-width="4"/>
      <circle cx="6" cy="14" r="0.8" fill="#0f172a"/>
      <circle cx="10" cy="10" r="0.8" fill="#0f172a"/>
    </g>

    <!-- Chocolate bar -->
    <g transform="translate(42,6)">
      <rect x="0" y="0" width="18" height="12" rx="2" fill="#7c2d12"/>
      <rect x="2" y="2" width="14" height="8" fill="#92400e"/>
      <path d="M2 4 h14 M2 8 h14 M6 2 v8 M10 2 v8" stroke="#7c2d12" stroke-width="0.8"/>
    </g>
  </g>
</svg>
