<svg xmlns="http://www.w3.org/2000/svg" width="120" height="120" viewBox="0 0 120 120">
  <rect width="120" height="120" fill="none"/>
  <!-- Simple vector food icons for broad browser support -->
  <g fill="none" stroke="none">
    <!-- Apple -->
    <g transform="translate(12,8)">
      <circle cx="10" cy="10" r="9" fill="#ef4444"/>
      <rect x="9.5" y="-1" width="1" height="6" rx="0.5" fill="#92400e"/>
      <path d="M11 3 C14 2, 16 5, 13 7 C12 7.5, 10.5 6, 11 3 Z" fill="#16a34a"/>
      <circle cx="6" cy="12" r="1.2" fill="#ffffff" opacity=".25"/>
    </g>

    <!-- Bread -->
    <g transform="translate(72,6)">
      <rect x="0" y="0" width="24" height="14" rx="6" fill="#f59e0b"/>
      <rect x="2" y="3" width="20" height="8" rx="4" fill="#fcd34d"/>
      <rect x="5" y="6" width="3" height="2" rx="1" fill="#eab308"/>
      <rect x="10" y="6" width="3" height="2" rx="1" fill="#eab308"/>
      <rect x="15" y="6" width="3" height="2" rx="1" fill="#eab308"/>
    </g>

    <!-- Cheese -->
    <g transform="translate(24,40)">
      <polygon points="0,16 24,0 24,16" fill="#fde047"/>
      <circle cx="8" cy="10" r="2" fill="#facc15"/>
      <circle cx="14" cy="6" r="1.5" fill="#facc15"/>
    </g>

    <!-- Sushi -->
    <g transform="translate(84,40)">
      <rect x="0" y="4" width="22" height="12" rx="3" fill="#111827"/>
      <rect x="2" y="6" width="18" height="8" rx="3" fill="#e5e7eb"/>
      <rect x="8" y="6" width="6" height="8" rx="1" fill="#ef4444"/>
    </g>

    <!-- Taco -->
    <g transform="translate(8,72)">
      <path d="M0,12 a12,12 0 0 1 24,0 v4 h-24z" fill="#f59e0b"/>
      <circle cx="6" cy="12" r="2" fill="#65a30d"/>
      <circle cx="12" cy="10" r="2" fill="#65a30d"/>
      <circle cx="16" cy="12" r="2" fill="#ef4444"/>
    </g>

    <!-- Salad -->
    <g transform="translate(68,72)">
      <rect x="0" y="4" width="24" height="12" rx="6" fill="#10b981"/>
      <circle cx="6" cy="10" r="2" fill="#f59e0b"/>
      <circle cx="12" cy="9" r="2" fill="#fef3c7"/>
      <circle cx="16" cy="11" r="2" fill="#ef4444"/>
    </g>

    <!-- Cupcake -->
    <g transform="translate(46,100)">
      <rect x="4" y="8" width="16" height="8" rx="2" fill="#a78bfa"/>
      <path d="M4 8 C6 4, 18 4, 20 8 Z" fill="#f472b6"/>
      <circle cx="12" cy="6" r="1.5" fill="#ffffff" opacity=".6"/>
    </g>
  </g>
</svg>
